HIERARCHY
ROOT hip
{
  OFFSET 0 0 0
  CHANNELS 6 Xposition Yposition Zposition Zrotation Yrotation Xrotation
  JOINT abdomen
  {
    OFFSET 0 20.6881 -0.73152
    CHANNELS 3 Zrotation Xrotation Yrotation
    JOINT chest
    {
      OFFSET 0 11.7043 -0.48768
      CHANNELS 3 Zrotation Xrotation Yrotation
      JOINT neck
      {
        OFFSET 0 22.1894 -2.19456
        CHANNELS 3 Zrotation Xrotation Yrotation
        JOINT head
        {
          OFFSET -0.24384 7.07133 1.2192
          CHANNELS 3 Zrotation Xrotation Yrotation
          JOINT leftEye
          {
            OFFSET 4.14528 8.04674 8.04672
            CHANNELS 3 Zrotation Xrotation Yrotation
            End Site
            {
              OFFSET 1 0 0
            }
          }
          JOINT rightEye
          {
            OFFSET -3.6576 8.04674 8.04672
            CHANNELS 3 Zrotation Xrotation Yrotation
            End Site
            {
              OFFSET 1 0 0
            }
          }
        }
      }
      JOINT rCollar
      {
        OFFSET -2.68224 19.2634 -4.8768
        CHANNELS 3 Zrotation Xrotation Yrotation
        JOINT rShldr
        {
          OFFSET -8.77824 -1.95073 1.46304
          CHANNELS 3 Zrotation Xrotation Yrotation
          JOINT rForeArm
          {
            OFFSET -28.1742 -1.7115 0.48768
            CHANNELS 3 Zrotation Xrotation Yrotation
            JOINT rHand
            {
              OFFSET -22.5879 0.773209 7.07136
              CHANNELS 3 Zrotation Xrotation Yrotation
              JOINT rThumb1
              {
                OFFSET -1.2192 -0.487915 3.41376
                CHANNELS 3 Zrotation Xrotation Yrotation
                JOINT rThumb2
                {
                  OFFSET -3.37035 -0.52449 3.41376
                  CHANNELS 3 Zrotation Xrotation Yrotation
                  End Site
                  {
                    OFFSET -1.78271 -1.18214 1.43049
                  }
                }
              }
              JOINT rIndex1
              {
                OFFSET -7.75947 0.938293 5.60832
                CHANNELS 3 Zrotation Xrotation Yrotation
                JOINT rIndex2
                {
                  OFFSET -2.54057 -0.884171 1.56538
                  CHANNELS 3 Zrotation Xrotation Yrotation
                  End Site
                  {
                    OFFSET -1.62519 -0.234802 1.16502
                  }
                }
              }
              JOINT rMid1
              {
                OFFSET -8.24714 1.18213 3.41376
                CHANNELS 3 Zrotation Xrotation Yrotation
                JOINT rMid2
                {
                  OFFSET -3.10165 -0.590103 1.0647
                  CHANNELS 3 Zrotation Xrotation Yrotation
                  End Site
                  {
                    OFFSET -2.48547 -0.328903 0.83742
                  }
                }
              }
              JOINT rRing1
              {
                OFFSET -8.82822 0.546677 1.51678
                CHANNELS 3 Zrotation Xrotation Yrotation
                JOINT rRing2
                {
                  OFFSET -2.60934 -0.819778 -0.0198488
                  CHANNELS 3 Zrotation Xrotation Yrotation
                  End Site
                  {
                    OFFSET -2.33842 -0.294052 0.168128
                  }
                }
              }
              JOINT rPinky1
              {
                OFFSET -8.27202 -0.0477905 -0.4584
                CHANNELS 3 Zrotation Xrotation Yrotation
                JOINT rPinky2
                {
                  OFFSET -1.82734 -0.647385 -0.700984
                  CHANNELS 3 Zrotation Xrotation Yrotation
                  End Site
                  {
                    OFFSET -1.69225 -0.51767 -0.607171
                  }
                }
              }
            }
          }
        }
      }
      JOINT lCollar
      {
        OFFSET 2.68224 19.2634 -4.8768
        CHANNELS 3 Zrotation Xrotation Yrotation
        JOINT lShldr
        {
          OFFSET 8.77824 -1.95073 1.46304
          CHANNELS 3 Zrotation Xrotation Yrotation
          JOINT lForeArm
          {
            OFFSET 28.1742 -1.7115 0.48768
            CHANNELS 3 Zrotation Xrotation Yrotation
            JOINT lHand
            {
              OFFSET 22.5879 0.773209 7.07136
              CHANNELS 3 Zrotation Xrotation Yrotation
              JOINT lThumb1
              {
                OFFSET 1.2192 -0.487915 3.41376
                CHANNELS 3 Zrotation Xrotation Yrotation
                JOINT lThumb2
                {
                  OFFSET 3.37035 -0.52449 3.41376
                  CHANNELS 3 Zrotation Xrotation Yrotation
                  End Site
                  {
                    OFFSET 1.78271 -1.18214 1.43049
                  }
                }
              }
              JOINT lIndex1
              {
                OFFSET 7.75947 0.938293 5.60832
                CHANNELS 3 Zrotation Xrotation Yrotation
                JOINT lIndex2
                {
                  OFFSET 2.54057 -0.884171 1.56538
                  CHANNELS 3 Zrotation Xrotation Yrotation
                  End Site
                  {
                    OFFSET 1.62519 -0.234802 1.16502
                  }
                }
              }
              JOINT lMid1
              {
                OFFSET 8.24714 1.18213 3.41376
                CHANNELS 3 Zrotation Xrotation Yrotation
                JOINT lMid2
                {
                  OFFSET 3.10165 -0.590103 1.0647
                  CHANNELS 3 Zrotation Xrotation Yrotation
                  End Site
                  {
                    OFFSET 2.48547 -0.328903 0.83742
                  }
                }
              }
              JOINT lRing1
              {
                OFFSET 8.82822 0.546677 1.51678
                CHANNELS 3 Zrotation Xrotation Yrotation
                JOINT lRing2
                {
                  OFFSET 2.60934 -0.819778 -0.0198488
                  CHANNELS 3 Zrotation Xrotation Yrotation
                  End Site
                  {
                    OFFSET 2.33842 -0.294052 0.168128
                  }
                }
              }
              JOINT lPinky1
              {
                OFFSET 8.27202 -0.0477905 -0.4584
                CHANNELS 3 Zrotation Xrotation Yrotation
                JOINT lPinky2
                {
                  OFFSET 1.82734 -0.647385 -0.700984
                  CHANNELS 3 Zrotation Xrotation Yrotation
                  End Site
                  {
                    OFFSET 1.69225 -0.51767 -0.607171
                  }
                }
              }
            }
          }
        }
      }
    }
  }
  JOINT rButtock
  {
    OFFSET -8.77824 4.35084 1.2192
    CHANNELS 3 Zrotation Xrotation Yrotation
    JOINT rThigh
    {
      OFFSET 0 -1.70687 -2.19456
      CHANNELS 3 Zrotation Xrotation Yrotation
      JOINT rShin
      {
        OFFSET 0 -36.8199 0.73152
        CHANNELS 3 Zrotation Xrotation Yrotation
        JOINT rFoot
        {
          OFFSET 0.73152 -45.1104 -5.12064
          CHANNELS 3 Zrotation Xrotation Yrotation
          End Site
          {
            OFFSET -1.1221 -3.69964 12.103
          }
        }
      }
    }
  }
  JOINT lButtock
  {
    OFFSET 8.77824 4.35084 1.2192
    CHANNELS 3 Zrotation Xrotation Yrotation
    JOINT lThigh
    {
      OFFSET 0 -1.70687 -2.19456
      CHANNELS 3 Zrotation Xrotation Yrotation
      JOINT lShin
      {
        OFFSET 0 -36.8199 0.73152
        CHANNELS 3 Zrotation Xrotation Yrotation
        JOINT lFoot
        {
          OFFSET -0.73152 -45.1104 -5.12064
          CHANNELS 3 Zrotation Xrotation Yrotation
          End Site
          {
            OFFSET 1.1221 -3.69964 12.103
          }
        }
      }
    }
  }
}
MOTION
Frames:	4
Frame Time:	0.03333
0.0007999999797903001 55.649600982666016 0.22005000710487366 -7.4320001900196075 -55.887601375579834 4.911700040102005 -0.8198409900069237 12.95390009880066 14.731299430131912 -2.0530799590051174 -11.708499491214752 3.806530013680458 -0.2710720058530569 13.04440051317215 9.060190245509148 6.766269877552986 -20.119400024414062 19.006099551916122 0.0 0.0 0.0 0.0 0.0 0.0 0.0 0.0 -6.394884621840902e-13 54.30450260639191 78.69760036468506 14.240299612283707 -26.34000062942505 -45.583900809288025 94.66970443725586 -34.80849891901016 -78.18210124969482 -42.1970996260643 -1.1395684396120487e-09 -1.6176500139408745e-08 3.334292841827846e-09 -2.1601920252578566e-09 -2.3809434424038045e-08 5.5776183671696344e-09 -1.1395684396120487e-09 -1.6176500139408745e-08 3.334292841827846e-09 7.7309102565050125 5.474880114197731 0.41731400415301323 -1.1395684396120487e-09 -1.6176500139408745e-08 3.334292841827846e-09 2.905540131032467 0.9651830233633518 0.102901995414868 -1.1395684396120487e-09 -1.6176500139408745e-08 3.334292841827846e-09 10.27859978377819 0.7318009994924068 0.025912300043273717 -1.1395684396120487e-09 -1.6176500139408745e-08 3.334292841827846e-09 2.221670038998127 -0.733487019315362 -0.2089200052432716 0.0 0.0 -6.394884621840902e-13 -63.67120027542114 6.512259989976883 -33.34119915962219 28.36160033941269 -33.63469988107681 -73.10170233249664 0.41459198109805584 17.999699860811234 -2.61724004521966 -2.9128699452485307e-09 2.5374902179464698e-09 5.40655520353539e-09 -4.971383305019117e-09 4.23852952735615e-09 9.387370880631352e-09 -2.9128699452485307e-09 2.5374902179464698e-09 5.40655520353539e-09 -7.7309102565050125 5.474880114197731 -0.41731400415301323 -2.9128699452485307e-09 2.5374902179464698e-09 5.40655520353539e-09 -2.905540131032467 0.9651830233633518 -0.102901995414868 -2.9128699452485307e-09 2.5374902179464698e-09 5.40655520353539e-09 -10.27859978377819 0.7318009994924068 -0.025912300043273717 -2.9128699452485307e-09 2.5374902179464698e-09 5.40655520353539e-09 -2.221670038998127 -0.733487019315362 0.2089200052432716 0.0 0.0 0.0 -26.223201155662537 -31.274801194667816 -32.279599606990814 -4.485220089554787 81.24099969863892 6.900729686021805 -11.498399376869202 -25.78540027141571 -23.959001004695892 0.0 0.0 0.0 59.80540215969086 -40.713701248168945 59.26750123500824 1.6913999989628792 65.71179807186127 -1.469540074467659 -0.09913949528709054 7.516320124268532 3.193200007081032
-0.02290000073844567 55.732200622558594 0.39667001366615295 -7.844900116324425 -56.15239977836609 5.2615999057888985 -0.40993801318109035 12.948099821805954 14.820300489664078 -2.1873399429023266 -11.662800014019012 3.830370157957077 -0.2616200060583651 13.11169981956482 9.082779809832573 6.738020181655884 -19.975000619888306 19.026500433683395 0.0 0.0 0.0 0.0 0.0 0.0 0.0 0.0 0.0 53.53570103645325 79.02160048484802 14.613900482654572 -26.318298876285553 -45.630099177360535 94.76619958877563 -34.63229924440384 -78.14200222492218 -42.01700001955032 -5.333333774615312e-10 3.4916070035251323e-09 1.5059953284435323e-10 -9.208633855450898e-10 6.509992545034038e-09 2.276578925375361e-10 -5.333333774615312e-10 3.4916070035251323e-09 1.5059953284435323e-10 7.7309102565050125 5.474880114197731 0.41731400415301323 -5.333333774615312e-10 3.4916070035251323e-09 1.5059953284435323e-10 2.905540131032467 0.9651830233633518 0.102901995414868 -5.333333774615312e-10 3.4916070035251323e-09 1.5059953284435323e-10 10.27859978377819 0.7318009994924068 0.025912300043273717 -5.333333774615312e-10 3.4916070035251323e-09 1.5059953284435323e-10 2.221670038998127 -0.733487019315362 -0.2089200052432716 0.0 0.0 0.0 -63.95659804344177 6.322680115699768 -33.34390014410019 28.357300758361816 -33.57840031385422 -73.01139771938324 0.43373599648475647 18.396200090646744 -2.6789999194443226 2.98001623377786e-10 -9.72022462519817e-11 -8.732214951123751e-10 5.019984428145108e-10 -1.3812950783176348e-10 -1.5130297015275573e-09 2.98001623377786e-10 -9.72022462519817e-11 -8.732214951123751e-10 -7.7309102565050125 5.474880114197731 -0.41731400415301323 2.98001623377786e-10 -9.72022462519817e-11 -8.732214951123751e-10 -2.905540131032467 0.9651830233633518 -0.102901995414868 2.98001623377786e-10 -9.72022462519817e-11 -8.732214951123751e-10 -10.27859978377819 0.7318009994924068 -0.025912300043273717 2.98001623377786e-10 -9.72022462519817e-11 -8.732214951123751e-10 -2.221670038998127 -0.733487019315362 0.2089200052432716 0.0 0.0 0.0 -26.12710028886795 -31.003200709819794 -32.18799948692322 -4.266429953277111 80.86119890213013 6.66778989136219 -11.324600279331207 -25.56579977273941 -23.806300163269043 0.0 0.0 0.0 60.107300877571106 -40.32739877700806 59.591002464294434 1.7061400786042213 65.86340188980103 -1.4916300773620605 -0.0819566985592246 7.3347097635269165 3.303009979426861
-0.052400000917259604 55.79869842529297 0.535490021109581 -8.374199867248535 -56.3321989774704 5.681300237774849 0.04540720023214817 12.96080008149147 14.887500554323196 -2.3290899954736233 -11.636299788951874 3.848329894244671 -0.26873999275267124 13.17580059170723 9.084590300917625 6.737320125102997 -19.917600005865097 19.0208999812603 0.0 0.0 0.0 0.0 0.0 0.0 0.0 0.0 9.592326932761353e-13 52.659101486206055 79.34700071811676 15.114899575710297 -26.299601197242737 -45.669302344322205 94.84870433807373 -34.915299117565155 -78.20619821548462 -42.30620115995407 1.2597922705026576e-10 2.600671678010258e-08 -3.396962711121887e-09 4.278177812011563e-10 4.132118647248717e-08 -5.735891761560197e-09 1.2597922705026576e-10 2.600671678010258e-08 -3.396962711121887e-09 7.7309102565050125 5.474880114197731 0.41731400415301323 1.2597922705026576e-10 2.600671678010258e-08 -3.396962711121887e-09 2.905540131032467 0.9651830233633518 0.102901995414868 1.2597922705026576e-10 2.600671678010258e-08 -3.396962711121887e-09 10.27859978377819 0.7318009994924068 0.025912300043273717 1.2597922705026576e-10 2.600671678010258e-08 -3.396962711121887e-09 2.221670038998127 -0.733487019315362 -0.2089200052432716 0.0 0.0 9.592326932761353e-13 -64.31039750576019 6.142320334911346 -33.320401310920715 28.355798721313477 -33.56409877538681 -72.99079835414886 0.45379498042166233 18.794600665569305 -2.74144995957613 3.5274183574074414e-09 -2.540048171795206e-09 -7.366267595898535e-09 6.005436148370791e-09 -4.179696588835213e-09 -1.2781775637904502e-08 3.5274183574074414e-09 -2.540048171795206e-09 -7.366267595898535e-09 -7.7309102565050125 5.474880114197731 -0.41731400415301323 3.5274183574074414e-09 -2.540048171795206e-09 -7.366267595898535e-09 -2.905540131032467 0.9651830233633518 -0.102901995414868 3.5274183574074414e-09 -2.540048171795206e-09 -7.366267595898535e-09 -10.27859978377819 0.7318009994924068 -0.025912300043273717 3.5274183574074414e-09 -2.540048171795206e-09 -7.366267595898535e-09 -2.221670038998127 -0.733487019315362 0.2089200052432716 0.0 0.0 0.0 -25.89740127325058 -30.754999816417694 -32.04100102186203 -4.0786900743842125 80.51239907741547 6.470799744129181 -11.202199682593346 -25.33949911594391 -23.746299147605896 0.0 0.0 0.0 60.466400384902954 -39.98940020799637 59.86200213432312 1.719689927995205 65.99819898605347 -1.5107000805437565 -0.0684130989247933 7.210329696536064 3.4304001554846764
-0.07250000030035153 55.84550094604492 0.6483500227332115 -8.912599682807922 -56.42430067062378 6.1180999875068665 0.466845016926527 12.977200448513031 14.870999604463577 -2.434439957141876 -11.65850043296814 3.8445399329066277 -0.293931991327554 13.245900124311447 9.072150215506554 6.7862798273563385 -19.988800585269928 19.009799659252167 0.0 0.0 0.0 0.0 0.0 0.0 0.0 0.0 9.592326932761353e-13 51.52469873428345 79.61270034313202 15.906800329685211 -26.295899748802185 -45.67710220813751 94.86500144004822 -35.88089972734451 -78.41750264167786 -43.29219996929169 -2.877698079828406e-10 2.720895508900867e-08 -3.063149733861792e-09 -3.0311753107525874e-10 4.3973784613626776e-08 -5.198721453325561e-09 -2.877698079828406e-10 2.720895508900867e-08 -3.063149733861792e-09 7.7309102565050125 5.474880114197731 0.41731400415301323 -2.877698079828406e-10 2.720895508900867e-08 -3.063149733861792e-09 2.905540131032467 0.9651830233633518 0.102901995414868 -2.877698079828406e-10 2.720895508900867e-08 -3.063149733861792e-09 10.27859978377819 0.7318009994924068 0.025912300043273717 -2.877698079828406e-10 2.720895508900867e-08 -3.063149733861792e-09 2.221670038998127 -0.733487019315362 -0.2089200052432716 0.0 0.0 9.592326932761353e-13 -64.67560172080994 5.972450003027916 -33.22930008172989 28.358100056648254 -33.609900176525116 -73.07160258293152 0.462116994895041 18.957099616527557 -2.7670100703835487 2.7964830451310263e-09 -1.680575678619789e-09 -5.78641135007274e-09 4.7629100663471036e-09 -2.7421265258453786e-09 -1.0040928088983492e-08 2.7964830451310263e-09 -1.680575678619789e-09 -5.78641135007274e-09 -7.7309102565050125 5.474880114197731 -0.41731400415301323 2.7964830451310263e-09 -1.680575678619789e-09 -5.78641135007274e-09 -2.905540131032467 0.9651830233633518 -0.102901995414868 2.7964830451310263e-09 -1.680575678619789e-09 -5.78641135007274e-09 -10.27859978377819 0.7318009994924068 -0.025912300043273717 2.7964830451310263e-09 -1.680575678619789e-09 -5.78641135007274e-09 -2.221670038998127 -0.733487019315362 0.2089200052432716 0.0 0.0 0.0 -25.576700270175934 -30.575501024723053 -31.849300861358643 -3.9287498965859413 80.22269904613495 6.319570094347 -11.155499741435051 -25.110500156879425 -23.822801113128662 0.0 0.0 0.0 60.83299934864044 -39.79440093040466 60.0432014465332 1.7313399352133274 66.11020267009735 -1.5259799547493458 -0.06355000252369791 7.137409821152687 3.632499910891056
